{
    "asset" : {
        "generator" : "Khronos glTF Blender I/O v1.8.19",
        "version" : "2.0"
    },
    "scene" : 0,
    "scenes" : [
        {
            "name" : "Scene",
            "nodes" : [
                0,
                1,
                2,
                4,
                6,
                8
            ]
        }
    ],
    "nodes" : [
        {
            "mesh" : 0,
            "name" : "Ceiling"
        },
        {
            "mesh" : 1,
            "name" : "Front_wall"
        },
        {
            "mesh" : 2,
            "name" : "Ground"
        },
        {
            "mesh" : 3,
            "name" : "MovablePart",
            "translation" : [
                0.7378316521644592,
                0.9927522540092468,
                0
            ]
        },
        {
            "children" : [
                3
            ],
            "mesh" : 4,
            "name" : "Door_00",
            "rotation" : [
                0,
                0,
                0,
                -1
            ]
        },
        {
            "mesh" : 5,
            "name" : "Ladder",
            "translation" : [
                0,
                0.9927522540092468,
                -0.5
            ]
        },
        {
            "children" : [
                5
            ],
            "mesh" : 6,
            "name" : "Ceiling._Exit"
        },
        {
            "mesh" : 7,
            "name" : "Ladder.001",
            "translation" : [
                0,
                -4.571259498596191,
                -0.6812818050384521
            ]
        },
        {
            "children" : [
                7
            ],
            "mesh" : 8,
            "name" : "Ground_Entry"
        }
    ],
    "materials" : [
        {
            "doubleSided" : true,
            "name" : "Cell_Tile_00",
            "pbrMetallicRoughness" : {
                "baseColorTexture" : {
                    "index" : 0
                },
                "metallicFactor" : 0,
                "roughnessFactor" : 0
            }
        },
        {
            "doubleSided" : true,
            "name" : "Cell_Tile_00.001",
            "pbrMetallicRoughness" : {
                "baseColorTexture" : {
                    "index" : 1
                },
                "metallicFactor" : 0,
                "roughnessFactor" : 0
            }
        },
        {
            "doubleSided" : true,
            "name" : "Cell_Tile_00.004",
            "pbrMetallicRoughness" : {
                "baseColorTexture" : {
                    "index" : 2
                },
                "metallicFactor" : 0,
                "roughnessFactor" : 0
            }
        },
        {
            "doubleSided" : true,
            "name" : "Cell_Tile_00.002",
            "pbrMetallicRoughness" : {
                "baseColorTexture" : {
                    "index" : 3
                },
                "metallicFactor" : 0,
                "roughnessFactor" : 0
            }
        }
    ],
    "meshes" : [
        {
            "name" : "Plane.001",
            "primitives" : [
                {
                    "attributes" : {
                        "POSITION" : 0,
                        "NORMAL" : 1,
                        "TANGENT" : 2,
                        "TEXCOORD_0" : 3
                    },
                    "indices" : 4,
                    "material" : 0
                }
            ]
        },
        {
            "name" : "Plane.003",
            "primitives" : [
                {
                    "attributes" : {
                        "POSITION" : 5,
                        "NORMAL" : 6,
                        "TANGENT" : 7,
                        "TEXCOORD_0" : 8
                    },
                    "indices" : 9,
                    "material" : 0
                }
            ]
        },
        {
            "name" : "Plane.006",
            "primitives" : [
                {
                    "attributes" : {
                        "POSITION" : 10,
                        "NORMAL" : 11,
                        "TANGENT" : 12,
                        "TEXCOORD_0" : 13
                    },
                    "indices" : 14,
                    "material" : 0
                }
            ]
        },
        {
            "name" : "Plane.027",
            "primitives" : [
                {
                    "attributes" : {
                        "POSITION" : 15,
                        "NORMAL" : 16,
                        "TANGENT" : 17,
                        "TEXCOORD_0" : 18
                    },
                    "indices" : 19,
                    "material" : 0
                }
            ]
        },
        {
            "name" : "Plane.021",
            "primitives" : [
                {
                    "attributes" : {
                        "POSITION" : 20,
                        "NORMAL" : 21,
                        "TANGENT" : 22,
                        "TEXCOORD_0" : 23
                    },
                    "indices" : 24,
                    "material" : 0
                }
            ]
        },
        {
            "name" : "ExitPointStart_00",
            "primitives" : [
                {
                    "attributes" : {
                        "POSITION" : 25,
                        "NORMAL" : 26,
                        "TANGENT" : 27,
                        "TEXCOORD_0" : 28
                    },
                    "indices" : 29,
                    "material" : 0
                }
            ]
        },
        {
            "name" : "Plane.004",
            "primitives" : [
                {
                    "attributes" : {
                        "POSITION" : 30,
                        "NORMAL" : 31,
                        "TANGENT" : 32,
                        "TEXCOORD_0" : 33
                    },
                    "indices" : 34,
                    "material" : 1
                }
            ]
        },
        {
            "name" : "ExitPointStart_00.001",
            "primitives" : [
                {
                    "attributes" : {
                        "POSITION" : 35,
                        "NORMAL" : 36,
                        "TANGENT" : 37,
                        "TEXCOORD_0" : 38
                    },
                    "indices" : 39,
                    "material" : 2
                }
            ]
        },
        {
            "name" : "Plane.002",
            "primitives" : [
                {
                    "attributes" : {
                        "POSITION" : 40,
                        "NORMAL" : 41,
                        "TANGENT" : 42,
                        "TEXCOORD_0" : 43
                    },
                    "indices" : 44,
                    "material" : 3
                }
            ]
        }
    ],
    "textures" : [
        {
            "sampler" : 0,
            "source" : 0
        },
        {
            "sampler" : 0,
            "source" : 1
        },
        {
            "sampler" : 0,
            "source" : 2
        },
        {
            "sampler" : 0,
            "source" : 3
        }
    ],
    "images" : [
        {
            "mimeType" : "image/jpeg",
            "name" : "LabAtlas_00.jpg",
            "uri" : "../../Assets/CustomTextures/LabAtlas_00.jpg"
        },
        {
            "mimeType" : "image/jpeg",
            "name" : "LabAtlas_00.jpg.001",
            "uri" : "../../Assets/CustomTextures/LabAtlas_00.jpg"
        },
        {
            "mimeType" : "image/jpeg",
            "name" : "LabAtlas_00.jpg.004",
            "uri" : "../../Assets/CustomTextures/LabAtlas_00.jpg"
        },
        {
            "mimeType" : "image/jpeg",
            "name" : "LabAtlas_00.jpg.002",
            "uri" : "../../Assets/CustomTextures/LabAtlas_00.jpg"
        }
    ],
    "accessors" : [
        {
            "bufferView" : 0,
            "componentType" : 5126,
            "count" : 4,
            "max" : [
                1,
                3,
                1
            ],
            "min" : [
                -1,
                3,
                -1
            ],
            "type" : "VEC3"
        },
        {
            "bufferView" : 1,
            "componentType" : 5126,
            "count" : 4,
            "type" : "VEC3"
        },
        {
            "bufferView" : 2,
            "componentType" : 5126,
            "count" : 4,
            "type" : "VEC4"
        },
        {
            "bufferView" : 3,
            "componentType" : 5126,
            "count" : 4,
            "type" : "VEC2"
        },
        {
            "bufferView" : 4,
            "componentType" : 5123,
            "count" : 6,
            "type" : "SCALAR"
        },
        {
            "bufferView" : 5,
            "componentType" : 5126,
            "count" : 4,
            "max" : [
                1,
                3,
                0
            ],
            "min" : [
                -1,
                0,
                0
            ],
            "type" : "VEC3"
        },
        {
            "bufferView" : 6,
            "componentType" : 5126,
            "count" : 4,
            "type" : "VEC3"
        },
        {
            "bufferView" : 7,
            "componentType" : 5126,
            "count" : 4,
            "type" : "VEC4"
        },
        {
            "bufferView" : 8,
            "componentType" : 5126,
            "count" : 4,
            "type" : "VEC2"
        },
        {
            "bufferView" : 9,
            "componentType" : 5123,
            "count" : 6,
            "type" : "SCALAR"
        },
        {
            "bufferView" : 10,
            "componentType" : 5126,
            "count" : 4,
            "max" : [
                1,
                0,
                1
            ],
            "min" : [
                -1,
                0,
                -1
            ],
            "type" : "VEC3"
        },
        {
            "bufferView" : 11,
            "componentType" : 5126,
            "count" : 4,
            "type" : "VEC3"
        },
        {
            "bufferView" : 12,
            "componentType" : 5126,
            "count" : 4,
            "type" : "VEC4"
        },
        {
            "bufferView" : 13,
            "componentType" : 5126,
            "count" : 4,
            "type" : "VEC2"
        },
        {
            "bufferView" : 14,
            "componentType" : 5123,
            "count" : 6,
            "type" : "SCALAR"
        },
        {
            "bufferView" : 15,
            "componentType" : 5126,
            "count" : 20,
            "max" : [
                2.44538895799451e-08,
                0.9927522540092468,
                0.03752493858337402
            ],
            "min" : [
                -1.4756619930267334,
                -0.9927522540092468,
                -0.03752434253692627
            ],
            "type" : "VEC3"
        },
        {
            "bufferView" : 16,
            "componentType" : 5126,
            "count" : 20,
            "type" : "VEC3"
        },
        {
            "bufferView" : 17,
            "componentType" : 5126,
            "count" : 20,
            "type" : "VEC4"
        },
        {
            "bufferView" : 18,
            "componentType" : 5126,
            "count" : 20,
            "type" : "VEC2"
        },
        {
            "bufferView" : 19,
            "componentType" : 5123,
            "count" : 30,
            "type" : "SCALAR"
        },
        {
            "bufferView" : 20,
            "componentType" : 5126,
            "count" : 72,
            "max" : [
                1.0000007152557373,
                3,
                0.08271360397338867
            ],
            "min" : [
                -0.9999993443489075,
                0,
                -0.08271384239196777
            ],
            "type" : "VEC3"
        },
        {
            "bufferView" : 21,
            "componentType" : 5126,
            "count" : 72,
            "type" : "VEC3"
        },
        {
            "bufferView" : 22,
            "componentType" : 5126,
            "count" : 72,
            "type" : "VEC4"
        },
        {
            "bufferView" : 23,
            "componentType" : 5126,
            "count" : 72,
            "type" : "VEC2"
        },
        {
            "bufferView" : 24,
            "componentType" : 5123,
            "count" : 132,
            "type" : "SCALAR"
        },
        {
            "bufferView" : 25,
            "componentType" : 5126,
            "count" : 546,
            "max" : [
                0.5433012843132019,
                11.014495849609375,
                0.0375000461935997
            ],
            "min" : [
                -0.5433012843132019,
                -1,
                -0.0375000461935997
            ],
            "type" : "VEC3"
        },
        {
            "bufferView" : 26,
            "componentType" : 5126,
            "count" : 546,
            "type" : "VEC3"
        },
        {
            "bufferView" : 27,
            "componentType" : 5126,
            "count" : 546,
            "type" : "VEC4"
        },
        {
            "bufferView" : 28,
            "componentType" : 5126,
            "count" : 546,
            "type" : "VEC2"
        },
        {
            "bufferView" : 29,
            "componentType" : 5123,
            "count" : 1404,
            "type" : "SCALAR"
        },
        {
            "bufferView" : 30,
            "componentType" : 5126,
            "count" : 112,
            "max" : [
                1,
                11,
                1
            ],
            "min" : [
                -1,
                3,
                -1
            ],
            "type" : "VEC3"
        },
        {
            "bufferView" : 31,
            "componentType" : 5126,
            "count" : 112,
            "type" : "VEC3"
        },
        {
            "bufferView" : 32,
            "componentType" : 5126,
            "count" : 112,
            "type" : "VEC4"
        },
        {
            "bufferView" : 33,
            "componentType" : 5126,
            "count" : 112,
            "type" : "VEC2"
        },
        {
            "bufferView" : 34,
            "componentType" : 5123,
            "count" : 168,
            "type" : "SCALAR"
        },
        {
            "bufferView" : 35,
            "componentType" : 5126,
            "count" : 434,
            "max" : [
                0.5433012843132019,
                5.415876388549805,
                0.0375000461935997
            ],
            "min" : [
                -0.5433012843132019,
                -1,
                -0.8571557998657227
            ],
            "type" : "VEC3"
        },
        {
            "bufferView" : 36,
            "componentType" : 5126,
            "count" : 434,
            "type" : "VEC3"
        },
        {
            "bufferView" : 37,
            "componentType" : 5126,
            "count" : 434,
            "type" : "VEC4"
        },
        {
            "bufferView" : 38,
            "componentType" : 5126,
            "count" : 434,
            "type" : "VEC2"
        },
        {
            "bufferView" : 39,
            "componentType" : 5123,
            "count" : 1548,
            "type" : "SCALAR"
        },
        {
            "bufferView" : 40,
            "componentType" : 5126,
            "count" : 96,
            "max" : [
                1,
                1,
                1
            ],
            "min" : [
                -1,
                -5,
                -0.9999998807907104
            ],
            "type" : "VEC3"
        },
        {
            "bufferView" : 41,
            "componentType" : 5126,
            "count" : 96,
            "type" : "VEC3"
        },
        {
            "bufferView" : 42,
            "componentType" : 5126,
            "count" : 96,
            "type" : "VEC4"
        },
        {
            "bufferView" : 43,
            "componentType" : 5126,
            "count" : 96,
            "type" : "VEC2"
        },
        {
            "bufferView" : 44,
            "componentType" : 5123,
            "count" : 144,
            "type" : "SCALAR"
        }
    ],
    "bufferViews" : [
        {
            "buffer" : 0,
            "byteLength" : 48,
            "byteOffset" : 0
        },
        {
            "buffer" : 0,
            "byteLength" : 48,
            "byteOffset" : 48
        },
        {
            "buffer" : 0,
            "byteLength" : 64,
            "byteOffset" : 96
        },
        {
            "buffer" : 0,
            "byteLength" : 32,
            "byteOffset" : 160
        },
        {
            "buffer" : 0,
            "byteLength" : 12,
            "byteOffset" : 192
        },
        {
            "buffer" : 0,
            "byteLength" : 48,
            "byteOffset" : 204
        },
        {
            "buffer" : 0,
            "byteLength" : 48,
            "byteOffset" : 252
        },
        {
            "buffer" : 0,
            "byteLength" : 64,
            "byteOffset" : 300
        },
        {
            "buffer" : 0,
            "byteLength" : 32,
            "byteOffset" : 364
        },
        {
            "buffer" : 0,
            "byteLength" : 12,
            "byteOffset" : 396
        },
        {
            "buffer" : 0,
            "byteLength" : 48,
            "byteOffset" : 408
        },
        {
            "buffer" : 0,
            "byteLength" : 48,
            "byteOffset" : 456
        },
        {
            "buffer" : 0,
            "byteLength" : 64,
            "byteOffset" : 504
        },
        {
            "buffer" : 0,
            "byteLength" : 32,
            "byteOffset" : 568
        },
        {
            "buffer" : 0,
            "byteLength" : 12,
            "byteOffset" : 600
        },
        {
            "buffer" : 0,
            "byteLength" : 240,
            "byteOffset" : 612
        },
        {
            "buffer" : 0,
            "byteLength" : 240,
            "byteOffset" : 852
        },
        {
            "buffer" : 0,
            "byteLength" : 320,
            "byteOffset" : 1092
        },
        {
            "buffer" : 0,
            "byteLength" : 160,
            "byteOffset" : 1412
        },
        {
            "buffer" : 0,
            "byteLength" : 60,
            "byteOffset" : 1572
        },
        {
            "buffer" : 0,
            "byteLength" : 864,
            "byteOffset" : 1632
        },
        {
            "buffer" : 0,
            "byteLength" : 864,
            "byteOffset" : 2496
        },
        {
            "buffer" : 0,
            "byteLength" : 1152,
            "byteOffset" : 3360
        },
        {
            "buffer" : 0,
            "byteLength" : 576,
            "byteOffset" : 4512
        },
        {
            "buffer" : 0,
            "byteLength" : 264,
            "byteOffset" : 5088
        },
        {
            "buffer" : 0,
            "byteLength" : 6552,
            "byteOffset" : 5352
        },
        {
            "buffer" : 0,
            "byteLength" : 6552,
            "byteOffset" : 11904
        },
        {
            "buffer" : 0,
            "byteLength" : 8736,
            "byteOffset" : 18456
        },
        {
            "buffer" : 0,
            "byteLength" : 4368,
            "byteOffset" : 27192
        },
        {
            "buffer" : 0,
            "byteLength" : 2808,
            "byteOffset" : 31560
        },
        {
            "buffer" : 0,
            "byteLength" : 1344,
            "byteOffset" : 34368
        },
        {
            "buffer" : 0,
            "byteLength" : 1344,
            "byteOffset" : 35712
        },
        {
            "buffer" : 0,
            "byteLength" : 1792,
            "byteOffset" : 37056
        },
        {
            "buffer" : 0,
            "byteLength" : 896,
            "byteOffset" : 38848
        },
        {
            "buffer" : 0,
            "byteLength" : 336,
            "byteOffset" : 39744
        },
        {
            "buffer" : 0,
            "byteLength" : 5208,
            "byteOffset" : 40080
        },
        {
            "buffer" : 0,
            "byteLength" : 5208,
            "byteOffset" : 45288
        },
        {
            "buffer" : 0,
            "byteLength" : 6944,
            "byteOffset" : 50496
        },
        {
            "buffer" : 0,
            "byteLength" : 3472,
            "byteOffset" : 57440
        },
        {
            "buffer" : 0,
            "byteLength" : 3096,
            "byteOffset" : 60912
        },
        {
            "buffer" : 0,
            "byteLength" : 1152,
            "byteOffset" : 64008
        },
        {
            "buffer" : 0,
            "byteLength" : 1152,
            "byteOffset" : 65160
        },
        {
            "buffer" : 0,
            "byteLength" : 1536,
            "byteOffset" : 66312
        },
        {
            "buffer" : 0,
            "byteLength" : 768,
            "byteOffset" : 67848
        },
        {
            "buffer" : 0,
            "byteLength" : 288,
            "byteOffset" : 68616
        }
    ],
    "samplers" : [
        {
            "magFilter" : 9728,
            "minFilter" : 9984
        }
    ],
    "buffers" : [
        {
            "byteLength" : 68904,
            "uri" : "Cell_Tile_00-5569635a2e08bc585b046bf5c597323d.bin"
        }
    ]
}
